<mxfile host="app.diagrams.net" agent="Mozilla/5.0 (Windows NT 10.0; Win64; x64) AppleWebKit/537.36 (KHTML, like Gecko) Chrome/133.0.0.0 Safari/537.36" version="26.1.1">
  <diagram name="Page-1" id="58cdce13-f638-feb5-8d6f-7d28b1aa9fa0">
    <mxGraphModel dx="1050" dy="565" grid="1" gridSize="10" guides="1" tooltips="1" connect="1" arrows="1" fold="1" page="1" pageScale="1" pageWidth="1100" pageHeight="850" background="none" math="0" shadow="0">
      <root>
        <mxCell id="0" />
        <mxCell id="1" parent="0" />
        <mxCell id="WZD5aC5hvdzo4xhgFHvB-3" value="" style="edgeStyle=orthogonalEdgeStyle;rounded=0;orthogonalLoop=1;jettySize=auto;html=1;" edge="1" parent="1" source="WZD5aC5hvdzo4xhgFHvB-1" target="WZD5aC5hvdzo4xhgFHvB-2">
          <mxGeometry relative="1" as="geometry" />
        </mxCell>
        <mxCell id="WZD5aC5hvdzo4xhgFHvB-1" value="市场负责人" style="shape=umlActor;verticalLabelPosition=bottom;verticalAlign=top;html=1;outlineConnect=0;fillColor=#f8cecc;strokeColor=#b85450;" vertex="1" parent="1">
          <mxGeometry x="100" y="50" width="30" height="60" as="geometry" />
        </mxCell>
        <mxCell id="WZD5aC5hvdzo4xhgFHvB-46" style="edgeStyle=orthogonalEdgeStyle;rounded=0;orthogonalLoop=1;jettySize=auto;html=1;entryX=0.5;entryY=0;entryDx=0;entryDy=0;" edge="1" parent="1" source="WZD5aC5hvdzo4xhgFHvB-2" target="WZD5aC5hvdzo4xhgFHvB-5">
          <mxGeometry relative="1" as="geometry" />
        </mxCell>
        <mxCell id="WZD5aC5hvdzo4xhgFHvB-2" value="点击[部门任务分配]，分配触达目标" style="whiteSpace=wrap;html=1;verticalAlign=top;" vertex="1" parent="1">
          <mxGeometry x="165" y="50" width="120" height="60" as="geometry" />
        </mxCell>
        <mxCell id="WZD5aC5hvdzo4xhgFHvB-6" value="" style="edgeStyle=orthogonalEdgeStyle;rounded=0;orthogonalLoop=1;jettySize=auto;html=1;" edge="1" parent="1" source="WZD5aC5hvdzo4xhgFHvB-4" target="WZD5aC5hvdzo4xhgFHvB-5">
          <mxGeometry relative="1" as="geometry" />
        </mxCell>
        <mxCell id="WZD5aC5hvdzo4xhgFHvB-4" value="区域负责人&lt;div&gt;&lt;br&gt;&lt;/div&gt;" style="shape=umlActor;verticalLabelPosition=bottom;verticalAlign=top;html=1;outlineConnect=0;fillColor=#fff2cc;strokeColor=#d6b656;" vertex="1" parent="1">
          <mxGeometry x="100" y="180" width="30" height="60" as="geometry" />
        </mxCell>
        <mxCell id="WZD5aC5hvdzo4xhgFHvB-8" value="" style="edgeStyle=orthogonalEdgeStyle;rounded=0;orthogonalLoop=1;jettySize=auto;html=1;" edge="1" parent="1" source="WZD5aC5hvdzo4xhgFHvB-5" target="WZD5aC5hvdzo4xhgFHvB-7">
          <mxGeometry relative="1" as="geometry" />
        </mxCell>
        <mxCell id="WZD5aC5hvdzo4xhgFHvB-5" value="点击[区域任务分配]" style="whiteSpace=wrap;html=1;verticalAlign=top;" vertex="1" parent="1">
          <mxGeometry x="165" y="180" width="120" height="60" as="geometry" />
        </mxCell>
        <mxCell id="WZD5aC5hvdzo4xhgFHvB-10" value="" style="edgeStyle=orthogonalEdgeStyle;rounded=0;orthogonalLoop=1;jettySize=auto;html=1;" edge="1" parent="1" source="WZD5aC5hvdzo4xhgFHvB-7" target="WZD5aC5hvdzo4xhgFHvB-9">
          <mxGeometry relative="1" as="geometry" />
        </mxCell>
        <mxCell id="WZD5aC5hvdzo4xhgFHvB-7" value="点击[选择医院]" style="whiteSpace=wrap;html=1;verticalAlign=top;" vertex="1" parent="1">
          <mxGeometry x="365" y="180" width="120" height="60" as="geometry" />
        </mxCell>
        <mxCell id="WZD5aC5hvdzo4xhgFHvB-9" value="点击[下发任务]" style="whiteSpace=wrap;html=1;verticalAlign=top;" vertex="1" parent="1">
          <mxGeometry x="565" y="180" width="120" height="60" as="geometry" />
        </mxCell>
        <mxCell id="WZD5aC5hvdzo4xhgFHvB-15" value="" style="edgeStyle=orthogonalEdgeStyle;rounded=0;orthogonalLoop=1;jettySize=auto;html=1;" edge="1" parent="1" source="WZD5aC5hvdzo4xhgFHvB-11" target="WZD5aC5hvdzo4xhgFHvB-14">
          <mxGeometry relative="1" as="geometry" />
        </mxCell>
        <mxCell id="WZD5aC5hvdzo4xhgFHvB-11" value="市场人员" style="shape=umlActor;verticalLabelPosition=bottom;verticalAlign=top;html=1;outlineConnect=0;fillColor=#d5e8d4;strokeColor=#82b366;" vertex="1" parent="1">
          <mxGeometry x="100" y="310" width="30" height="60" as="geometry" />
        </mxCell>
        <mxCell id="WZD5aC5hvdzo4xhgFHvB-17" value="" style="edgeStyle=orthogonalEdgeStyle;rounded=0;orthogonalLoop=1;jettySize=auto;html=1;" edge="1" parent="1" source="WZD5aC5hvdzo4xhgFHvB-14" target="WZD5aC5hvdzo4xhgFHvB-16">
          <mxGeometry relative="1" as="geometry" />
        </mxCell>
        <mxCell id="WZD5aC5hvdzo4xhgFHvB-14" value="点击【行程管理】" style="whiteSpace=wrap;html=1;verticalAlign=top;" vertex="1" parent="1">
          <mxGeometry x="165" y="310" width="120" height="60" as="geometry" />
        </mxCell>
        <mxCell id="WZD5aC5hvdzo4xhgFHvB-19" value="" style="edgeStyle=orthogonalEdgeStyle;rounded=0;orthogonalLoop=1;jettySize=auto;html=1;" edge="1" parent="1" source="WZD5aC5hvdzo4xhgFHvB-16" target="WZD5aC5hvdzo4xhgFHvB-18">
          <mxGeometry relative="1" as="geometry" />
        </mxCell>
        <mxCell id="WZD5aC5hvdzo4xhgFHvB-16" value="点击【排期】" style="whiteSpace=wrap;html=1;verticalAlign=top;" vertex="1" parent="1">
          <mxGeometry x="365" y="310" width="120" height="60" as="geometry" />
        </mxCell>
        <mxCell id="WZD5aC5hvdzo4xhgFHvB-23" value="" style="edgeStyle=orthogonalEdgeStyle;rounded=0;orthogonalLoop=1;jettySize=auto;html=1;" edge="1" parent="1" source="WZD5aC5hvdzo4xhgFHvB-18" target="WZD5aC5hvdzo4xhgFHvB-22">
          <mxGeometry relative="1" as="geometry" />
        </mxCell>
        <mxCell id="WZD5aC5hvdzo4xhgFHvB-18" value="点击【提交审批】" style="whiteSpace=wrap;html=1;verticalAlign=top;" vertex="1" parent="1">
          <mxGeometry x="565" y="310" width="120" height="60" as="geometry" />
        </mxCell>
        <mxCell id="WZD5aC5hvdzo4xhgFHvB-26" value="" style="edgeStyle=orthogonalEdgeStyle;rounded=0;orthogonalLoop=1;jettySize=auto;html=1;" edge="1" parent="1" source="WZD5aC5hvdzo4xhgFHvB-20" target="WZD5aC5hvdzo4xhgFHvB-25">
          <mxGeometry relative="1" as="geometry" />
        </mxCell>
        <mxCell id="WZD5aC5hvdzo4xhgFHvB-20" value="区域负责人" style="shape=umlActor;verticalLabelPosition=bottom;verticalAlign=top;html=1;outlineConnect=0;fillColor=#fff2cc;strokeColor=#d6b656;" vertex="1" parent="1">
          <mxGeometry x="100" y="460" width="30" height="60" as="geometry" />
        </mxCell>
        <mxCell id="WZD5aC5hvdzo4xhgFHvB-29" style="edgeStyle=orthogonalEdgeStyle;rounded=0;orthogonalLoop=1;jettySize=auto;html=1;entryX=1;entryY=0.5;entryDx=0;entryDy=0;" edge="1" parent="1" source="WZD5aC5hvdzo4xhgFHvB-22" target="WZD5aC5hvdzo4xhgFHvB-25">
          <mxGeometry relative="1" as="geometry">
            <Array as="points">
              <mxPoint x="825" y="490" />
            </Array>
          </mxGeometry>
        </mxCell>
        <mxCell id="WZD5aC5hvdzo4xhgFHvB-22" value="发送消息" style="whiteSpace=wrap;html=1;verticalAlign=top;" vertex="1" parent="1">
          <mxGeometry x="765" y="310" width="120" height="60" as="geometry" />
        </mxCell>
        <mxCell id="WZD5aC5hvdzo4xhgFHvB-36" style="edgeStyle=orthogonalEdgeStyle;rounded=0;orthogonalLoop=1;jettySize=auto;html=1;entryX=0.5;entryY=0;entryDx=0;entryDy=0;" edge="1" parent="1" source="WZD5aC5hvdzo4xhgFHvB-25" target="WZD5aC5hvdzo4xhgFHvB-32">
          <mxGeometry relative="1" as="geometry" />
        </mxCell>
        <mxCell id="WZD5aC5hvdzo4xhgFHvB-25" value="查看消息" style="whiteSpace=wrap;html=1;verticalAlign=top;" vertex="1" parent="1">
          <mxGeometry x="165" y="460" width="120" height="60" as="geometry" />
        </mxCell>
        <mxCell id="WZD5aC5hvdzo4xhgFHvB-34" value="" style="edgeStyle=orthogonalEdgeStyle;rounded=0;orthogonalLoop=1;jettySize=auto;html=1;" edge="1" parent="1" source="WZD5aC5hvdzo4xhgFHvB-32" target="WZD5aC5hvdzo4xhgFHvB-33">
          <mxGeometry relative="1" as="geometry" />
        </mxCell>
        <mxCell id="WZD5aC5hvdzo4xhgFHvB-35" value="通过" style="edgeLabel;html=1;align=center;verticalAlign=middle;resizable=0;points=[];" vertex="1" connectable="0" parent="WZD5aC5hvdzo4xhgFHvB-34">
          <mxGeometry x="-0.1778" y="-2" relative="1" as="geometry">
            <mxPoint as="offset" />
          </mxGeometry>
        </mxCell>
        <mxCell id="WZD5aC5hvdzo4xhgFHvB-53" value="" style="edgeStyle=orthogonalEdgeStyle;rounded=0;orthogonalLoop=1;jettySize=auto;html=1;" edge="1" parent="1" source="WZD5aC5hvdzo4xhgFHvB-32" target="WZD5aC5hvdzo4xhgFHvB-52">
          <mxGeometry relative="1" as="geometry" />
        </mxCell>
        <mxCell id="WZD5aC5hvdzo4xhgFHvB-32" value="审批" style="rhombus;whiteSpace=wrap;html=1;" vertex="1" parent="1">
          <mxGeometry x="185" y="540" width="80" height="80" as="geometry" />
        </mxCell>
        <mxCell id="WZD5aC5hvdzo4xhgFHvB-33" value="查看本周行程" style="whiteSpace=wrap;html=1;" vertex="1" parent="1">
          <mxGeometry x="165" y="810" width="120" height="60" as="geometry" />
        </mxCell>
        <mxCell id="WZD5aC5hvdzo4xhgFHvB-41" value="" style="edgeStyle=orthogonalEdgeStyle;rounded=0;orthogonalLoop=1;jettySize=auto;html=1;" edge="1" parent="1" source="WZD5aC5hvdzo4xhgFHvB-37" target="WZD5aC5hvdzo4xhgFHvB-40">
          <mxGeometry relative="1" as="geometry" />
        </mxCell>
        <mxCell id="WZD5aC5hvdzo4xhgFHvB-37" value="我的任务" style="whiteSpace=wrap;html=1;" vertex="1" parent="1">
          <mxGeometry x="325" y="1040" width="120" height="60" as="geometry" />
        </mxCell>
        <mxCell id="WZD5aC5hvdzo4xhgFHvB-43" value="" style="edgeStyle=orthogonalEdgeStyle;rounded=0;orthogonalLoop=1;jettySize=auto;html=1;" edge="1" parent="1" source="WZD5aC5hvdzo4xhgFHvB-40" target="WZD5aC5hvdzo4xhgFHvB-42">
          <mxGeometry relative="1" as="geometry" />
        </mxCell>
        <mxCell id="WZD5aC5hvdzo4xhgFHvB-40" value="点击【审批记录】" style="whiteSpace=wrap;html=1;" vertex="1" parent="1">
          <mxGeometry x="505" y="1040" width="120" height="60" as="geometry" />
        </mxCell>
        <mxCell id="WZD5aC5hvdzo4xhgFHvB-42" value="查看审批状态" style="whiteSpace=wrap;html=1;" vertex="1" parent="1">
          <mxGeometry x="665" y="1040" width="120" height="60" as="geometry" />
        </mxCell>
        <mxCell id="WZD5aC5hvdzo4xhgFHvB-45" style="edgeStyle=orthogonalEdgeStyle;rounded=0;orthogonalLoop=1;jettySize=auto;html=1;entryX=0.415;entryY=0.037;entryDx=0;entryDy=0;entryPerimeter=0;" edge="1" parent="1" source="WZD5aC5hvdzo4xhgFHvB-9" target="WZD5aC5hvdzo4xhgFHvB-14">
          <mxGeometry relative="1" as="geometry">
            <Array as="points">
              <mxPoint x="625" y="280" />
              <mxPoint x="215" y="280" />
            </Array>
          </mxGeometry>
        </mxCell>
        <mxCell id="WZD5aC5hvdzo4xhgFHvB-49" style="edgeStyle=orthogonalEdgeStyle;rounded=0;orthogonalLoop=1;jettySize=auto;html=1;" edge="1" parent="1" source="WZD5aC5hvdzo4xhgFHvB-47">
          <mxGeometry relative="1" as="geometry">
            <mxPoint x="160" y="840" as="targetPoint" />
          </mxGeometry>
        </mxCell>
        <mxCell id="WZD5aC5hvdzo4xhgFHvB-47" value="市场人员" style="shape=umlActor;verticalLabelPosition=bottom;verticalAlign=top;html=1;outlineConnect=0;fillColor=#d5e8d4;strokeColor=#82b366;" vertex="1" parent="1">
          <mxGeometry x="90" y="810" width="30" height="60" as="geometry" />
        </mxCell>
        <mxCell id="WZD5aC5hvdzo4xhgFHvB-56" style="edgeStyle=orthogonalEdgeStyle;rounded=0;orthogonalLoop=1;jettySize=auto;html=1;entryX=0;entryY=0.5;entryDx=0;entryDy=0;" edge="1" parent="1" source="WZD5aC5hvdzo4xhgFHvB-50" target="WZD5aC5hvdzo4xhgFHvB-37">
          <mxGeometry relative="1" as="geometry" />
        </mxCell>
        <mxCell id="WZD5aC5hvdzo4xhgFHvB-50" value="市场人员" style="shape=umlActor;verticalLabelPosition=bottom;verticalAlign=top;html=1;outlineConnect=0;fillColor=#d5e8d4;strokeColor=#82b366;" vertex="1" parent="1">
          <mxGeometry x="90" y="1040" width="30" height="60" as="geometry" />
        </mxCell>
        <mxCell id="WZD5aC5hvdzo4xhgFHvB-58" style="edgeStyle=orthogonalEdgeStyle;rounded=0;orthogonalLoop=1;jettySize=auto;html=1;entryX=0.5;entryY=0;entryDx=0;entryDy=0;" edge="1" parent="1" source="WZD5aC5hvdzo4xhgFHvB-52" target="WZD5aC5hvdzo4xhgFHvB-37">
          <mxGeometry relative="1" as="geometry" />
        </mxCell>
        <mxCell id="WZD5aC5hvdzo4xhgFHvB-52" value="发送消息" style="whiteSpace=wrap;html=1;" vertex="1" parent="1">
          <mxGeometry x="325" y="550" width="120" height="60" as="geometry" />
        </mxCell>
      </root>
    </mxGraphModel>
  </diagram>
</mxfile>
